# xmcd
#
# Track frame offsets: 
#        150
#        16352
#        40432
#        57056
#        81063
#        98675
#        124477
#        146647
#        160698
#        186571
#        207936
#        228884
#        249032
#        271986
#        300081
#        321543
#        343020
#
# Disc length: 4771 seconds
#
# Revision: 0
# Processed by: cddbd v1.5.2PL0 Copyright (c) Steve Scherf et al.
# Submitted via: ExactAudioCopy v0.95a5
#
DISCID=e612a111
DTITLE=Akella Presents - Modern Electric Blues - vol.4  CD2 - Various
DYEAR=2010
DGENRE=Blues
TTITLE0=You Can't Catch Me - LEE BAKER and The AGITATORS
TTITLE1=Do You Believe In Love - VARGAS BLUES BAND and CHRIS REA
TTITLE2=Raised On The Blues - FREDDIE and The SCREAMERS
TTITLE3=Walk On - SMOKIN' JOE KUBEK -
TTITLE4=Keep My Coo - LEFTHAND FREDDY and The ACES
TTITLE5=Gold Rain - LITTLE BLUE
TTITLE6=For Better Or For Worse - WILLIE LOMAX
TTITLE7=Bumble Be - EDDY CEBALOS
TTITLE8=The Man From Mars - SMOKEY WILSON
TTITLE9=Woman's Got The Power - The BEAT DADDYS
TTITLE10=Fallin' Back Into the Blue - MILLER ANDERSON
TTITLE11=Morning Light Blues - ERIC CULBERSON
TTITLE12=Safe In Your Arms Again - Dr.HECTOR and The GROOVE INJECTORS
TTITLE13=One More Mile - TINO GONZALES
TTITLE14=Jail Of Love - PRESTON SHANNON
TTITLE15=I Known It's Over - PAT BOYACK and The PROWLERS
TTITLE16=Bang For The Buck - SUNNY LAND BLUES BAND
EXTD=
EXTT0=
EXTT1=
EXTT2=
EXTT3=
EXTT4=
EXTT5=
EXTT6=
EXTT7=
EXTT8=
EXTT9=
EXTT10=
EXTT11=
EXTT12=
EXTT13=
EXTT14=
EXTT15=
EXTT16=
PLAYORDER=
